<?xml version="1.0" encoding="utf-8"?>
<!-- Generator: Adobe Illustrator 22.0.1, SVG Export Plug-In . SVG Version: 6.00 Build 0)  -->
<svg version="1.1" xmlns="http://www.w3.org/2000/svg" xmlns:xlink="http://www.w3.org/1999/xlink" x="0px" y="0px"
	 viewBox="0 0 77.2 23.7" style="enable-background:new 0 0 77.2 23.7;" xml:space="preserve">
<style type="text/css">
	.st0{fill:#FCFCFC;}
</style>
<g id="Слой_1">
	<path class="st0" d="M13.1,4.8c-1,0.9-2,1.8-2.9,2.8c-2,2.3-3.7,4.7-3.8,7.9c0,0.7-0.4,1.1-1,1.2c-0.8,0.2-1-0.4-1.2-0.9
		c-0.6-1.7-1.2-3.4-1.8-5.3c-0.6,0.8-1.2,1.4-2.3,1c0.5-1.4,1.3-2.6,2.9-2.5c2.1,0,1.5,2.2,2.3,3.4c2-3.2,3.9-6.5,7.4-8
		C12.8,4.5,12.9,4.6,13.1,4.8z"/>
	<path class="st0" d="M39.8,21.8c2-1.5,3.4-3.2,4.4-5.2c-4.5-2.3-5.3-4.4-3.6-9.1c0.9-2.7,2.5-4.9,4.9-6.3c1.3-0.8,2.8-1.1,4.3-0.3
		c0.4,0.2,1.1,0.6,0.7,1.2c-0.3,0.4-1,0.8-1.5,0.3c-1.9-2-3-0.4-4.1,0.8c-1.6,1.9-2.6,4.2-3.1,6.6c-0.2,1.3,0,2.5,0.7,3.5
		c0.6,0.9,1.5,2,2.6,1.8c0.9-0.1,0.8-1.5,1.1-2.3c0.3-0.8,0.4-1.7,0.6-2.6c-0.5-0.4-1.2,0.2-1.7-0.3c0.3-0.5,0.9-0.3,1.3-0.6
		c0.7-0.5,1.5-1.7,2.3-1.1c0.9,0.6,0,1.8-0.1,2.7c-0.8,4.2-3.3,7.4-6.2,10.4C41.8,21.8,41.1,22.4,39.8,21.8z"/>
	<path class="st0" d="M77,13.1c-0.5-0.6-1-0.2-1.5,0.1c-0.6,0.4-0.9,1.1-1.8,1.1c-0.3-1,0.4-1.8,0.4-2.7c0-0.6,0.2-1.3-0.3-1.6
		c-0.6-0.3-1.2-0.1-1.8,0.2c-0.7,0.3-1.1,1.3-2.3,1.2c0.4-1,0.7-1.9,1.4-2.6c1.7-1.8,3-3.9,3.7-6.3c0.2-0.6,0.6-1.5-0.2-2
		c-0.6-0.4-1.2,0.2-1.8,0.5c-2.4,1.7-3.5,4.3-4.2,7.1c-0.5,2-2.1,2.7-3.4,3.8c-0.1,0.1-0.4,0.1-0.5,0.1c-1-2.1-1.7-0.3-2.5,0.2
		c-0.6,0.4-1.4,1-1.7,0c-0.6-1.6-0.1-3.2,0.9-4.6c0.8-1.1,1.6-0.7,2.5-0.1c0.5,0.3,1.3,0.3,1.6-0.3c0.4-0.7-0.4-1-0.9-1.2
		c-1.9-1-4.8,0.4-6,2.9c-1.5,3-0.2,5.1,3.4,5.1c-1,0.7-1.9,1.2-2.7,1.8c-1.7,1.2-3.3,2.6-4.3,4.5c-0.4,0.7-0.7,1.5-0.1,2.2
		c0.6,0.7,1.4,0.7,2.2,0.6c0.9-0.2,1.7-0.7,2.3-1.4c1.1-1.1,2.1-2.4,2.6-3.8c0.9-2.8,3-4.4,5.8-5.8c-0.1,1-0.2,1.7-0.2,2.5
		c0,0.5-0.2,1.1,0.4,1.4c0.6,0.3,1.1-0.1,1.5-0.6c0.5-0.6,1-1.3,1.6-2c0.3,2.8,1.1,3.3,3.5,2c0.6-0.3,1.2-0.7,1.8-1.2
		C76.9,14.1,77.5,13.7,77,13.1z M56.7,22c0.4-2.5,1.7-3.7,3.7-5.1C59.6,19.1,58.7,20.7,56.7,22z"/>
	<path class="st0" d="M31.1,11.8c-0.5-0.5-1.1-0.2-1.6,0.3c-0.8,0.7-1.4,1.7-2.5,2.2c-0.6-1.4-0.2-2.8-0.4-4.1
		c-0.1-1.1-0.3-2.2-1.9-1.6c-0.6,0.3-1.6,0.8-0.9-0.8C24.2,7,23.4,7,22.7,7.2c-0.7,0.2-1,0.9-1.3,1.4c-1.2,1.5-2.2,3.2-4,4.3
		c-0.5-1.4-0.8-2.8-1.3-4.1c-0.5-1.2-1.4-2-2.9-1.6c-0.4,0.1-0.8,0.2-0.9,0.6c-0.1,0.6,0.4,0.8,0.9,0.7c0.8-0.1,1,0.5,1.2,1
		c0.2,0.8-0.6,0.6-0.9,1c-0.6,0.6-1.3,1.1-1.8,1.8c-0.5,0.6-1.1,1.4-0.7,2.3c0.4,0.9,1.3,0.9,2.2,1c2.7,0.2,4.9-0.9,7.1-3
		c-0.3,1.3-0.6,2.1-0.7,2.9c-0.2,0.8-0.7,1.8,0.3,2.3c1,0.5,1.7-0.5,2.2-1.2c0.9-1.5,1.7-3.1,2.7-5c0.1,1.1,0.1,1.7,0.2,2.3
		c0.4,2.2,1.4,2.6,3.3,1.4c0.9-0.6,1.7-1.4,2.5-2.1C31,12.8,31.9,12.5,31.1,11.8z M14.2,14c-0.5-0.1-1.2,0.2-1.1-0.7
		c0-0.6,0.3-1.3,0.9-1.3c0.8-0.1,1.1,0.7,1.2,1.3C15.4,14.3,14.6,13.8,14.2,14z"/>
	<path class="st0" d="M54.3,8c-2.1-0.1-4.5,2.5-4.5,4.8c0,1.6,0.9,2.4,2.1,2.4c2.6,0.1,5.3-2.3,5.3-4.3C57.2,9.5,55.8,8,54.3,8z
		 M53,14.3c-1-0.1-1.3-0.9-1.2-1.7c0.2-1.3,0.3-3,1.8-3.3c1-0.2,1.5,1,1.6,1.7C55.3,12.5,53.9,14.4,53,14.3z"/>
</g>
<g id="Слой_2">
</g>
</svg>
